{
    "asset" : {
        "generator" : "Khronos glTF Blender I/O v1.3.48",
        "version" : "2.0"
    },
    "scene" : 0,
    "scenes" : [
        {
            "name" : "Scene",
            "nodes" : [
                0,
                1
            ]
        }
    ],
    "nodes" : [
        {
            "mesh" : 0,
            "name" : "Cube"
        },
        {
            "name" : "Sun",
            "rotation" : [
                0.31909236311912537,
                0.31822311878204346,
                -0.11469830572605133,
                0.8853012919425964
            ],
            "translation" : [
                3.2509279251098633,
                4.806818962097168,
                6.008524417877197
            ]
        }
    ],
    "materials" : [
        {
            "doubleSided" : true,
            "emissiveFactor" : [
                0,
                0,
                0
            ],
            "name" : "Portal",
            "normalTexture" : {
                "index" : 0,
                "texCoord" : 0
            },
            "pbrMetallicRoughness" : {
                "baseColorTexture" : {
                    "index" : 1,
                    "texCoord" : 0
                },
                "metallicFactor" : 0,
                "metallicRoughnessTexture" : {
                    "index" : 2,
                    "texCoord" : 0
                }
            }
        }
    ],
    "meshes" : [
        {
            "name" : "Cube.008",
            "primitives" : [
                {
                    "attributes" : {
                        "POSITION" : 0,
                        "NORMAL" : 1,
                        "TEXCOORD_0" : 2
                    },
                    "indices" : 3,
                    "material" : 0
                }
            ]
        }
    ],
    "textures" : [
        {
            "source" : 0
        },
        {
            "source" : 1
        },
        {
            "source" : 2
        }
    ],
    "images" : [
        {
            "bufferView" : 4,
            "mimeType" : "image/jpeg",
            "name" : "PORTAL_NORMAL"
        },
        {
            "bufferView" : 5,
            "mimeType" : "image/jpeg",
            "name" : "PORTAL_COLOR"
        },
        {
            "bufferView" : 6,
            "mimeType" : "image/png",
            "name" : "PORTAL_ROUGHNESS"
        }
    ],
    "accessors" : [
        {
            "bufferView" : 0,
            "componentType" : 5126,
            "count" : 216,
            "max" : [
                2.251039743423462,
                4.108717918395996,
                0.6662887930870056
            ],
            "min" : [
                -2.277104139328003,
                0,
                -0.49565330147743225
            ],
            "type" : "VEC3"
        },
        {
            "bufferView" : 1,
            "componentType" : 5126,
            "count" : 216,
            "type" : "VEC3"
        },
        {
            "bufferView" : 2,
            "componentType" : 5126,
            "count" : 216,
            "type" : "VEC2"
        },
        {
            "bufferView" : 3,
            "componentType" : 5123,
            "count" : 876,
            "type" : "SCALAR"
        }
    ],
    "bufferViews" : [
        {
            "buffer" : 0,
            "byteLength" : 2592,
            "byteOffset" : 0
        },
        {
            "buffer" : 0,
            "byteLength" : 2592,
            "byteOffset" : 2592
        },
        {
            "buffer" : 0,
            "byteLength" : 1728,
            "byteOffset" : 5184
        },
        {
            "buffer" : 0,
            "byteLength" : 1752,
            "byteOffset" : 6912
        },
        {
            "buffer" : 0,
            "byteLength" : 688085,
            "byteOffset" : 8664
        },
        {
            "buffer" : 0,
            "byteLength" : 430925,
            "byteOffset" : 696752
        },
        {
            "buffer" : 0,
            "byteLength" : 823230,
            "byteOffset" : 1127680
        }
    ],
    "buffers" : [
        {
            "byteLength" : 1950912,
            "uri" : "data:application/octet-stream;base64,"
        }
    ]
}
